<svg xmlns="http://www.w3.org/2000/svg" viewBox="0 0 200 200">
  <!-- Background petals for depth -->
  <g opacity="0.3">
    <path d="M100 55 C80 75, 80 95, 100 105 C120 95, 120 75, 100 55" 
          fill="#FFB7C5"/>
    <path d="M145 100 C125 80, 105 80, 95 105 C105 125, 125 125, 145 100" 
          fill="#FFB7C5"/>
    <path d="M100 145 C120 125, 120 105, 100 95 C80 105, 80 125, 100 145" 
          fill="#FFB7C5"/>
    <path d="M55 100 C75 120, 95 120, 105 95 C95 75, 75 75, 55 100" 
          fill="#FFB7C5"/>
  </g>

  <!-- Main petals -->
  <path d="M100 60 C85 75, 85 90, 100 100 C115 90, 115 75, 100 60" 
        fill="#FFB7C5" stroke="#FF69B4" stroke-width="1">
    <animate attributeName="opacity" values="0.8;1;0.8" dur="3s" repeatCount="indefinite"/>
  </path>
  <path d="M140 100 C125 85, 110 85, 100 100 C110 115, 125 115, 140 100" 
        fill="#FFB7C5" stroke="#FF69B4" stroke-width="1">
    <animate attributeName="opacity" values="0.8;1;0.8" dur="3s" repeatCount="indefinite" begin="0.6s"/>
  </path>
  <path d="M100 140 C115 125, 115 110, 100 100 C85 110, 85 125, 100 140" 
        fill="#FFB7C5" stroke="#FF69B4" stroke-width="1">
    <animate attributeName="opacity" values="0.8;1;0.8" dur="3s" repeatCount="indefinite" begin="1.2s"/>
  </path>
  <path d="M60 100 C75 115, 90 115, 100 100 C90 85, 75 85, 60 100" 
        fill="#FFB7C5" stroke="#FF69B4" stroke-width="1">
    <animate attributeName="opacity" values="0.8;1;0.8" dur="3s" repeatCount="indefinite" begin="1.8s"/>
  </path>
  <path d="M115 70 C95 65, 85 75, 100 100 C115 85, 125 75, 115 70" 
        fill="#FFB7C5" stroke="#FF69B4" stroke-width="1">
    <animate attributeName="opacity" values="0.8;1;0.8" dur="3s" repeatCount="indefinite" begin="2.4s"/>
  </path>

  <!-- Petal details -->
  <g fill="none" stroke="#FF69B4" stroke-width="0.5" opacity="0.6">
    <path d="M100 65 C95 75, 95 85, 100 95"/>
    <path d="M135 100 C125 95, 115 95, 105 100"/>
    <path d="M100 135 C105 125, 105 115, 100 105"/>
    <path d="M65 100 C75 105, 85 105, 95 100"/>
  </g>

  <!-- Center details -->
  <circle cx="100" cy="100" r="10" fill="#FFD700"/>
  <circle cx="100" cy="100" r="8" fill="#FFA500"/>
  <g fill="#FF8C00">
    <circle cx="97" cy="97" r="2"/>
    <circle cx="103" cy="97" r="2"/>
    <circle cx="97" cy="103" r="2"/>
    <circle cx="103" cy="103" r="2"/>
    <circle cx="100" cy="100" r="2"/>
  </g>

  <!-- Subtle gradient overlay -->
  <circle cx="100" cy="100" r="10" fill="url(#centerGradient)"/>
  
  <!-- Definitions -->
  <defs>
    <radialGradient id="centerGradient">
      <stop offset="0%" stop-color="white" stop-opacity="0.3"/>
      <stop offset="100%" stop-color="white" stop-opacity="0"/>
    </radialGradient>
  </defs>
</svg>